<svg width="111.08" height="109.06" viewBox="0 0 111.08 109.06" xmlns="http://www.w3.org/2000/svg" class="transition-all duration-300 ease-in-out">
  <path d="M75.75,61.83l22.6,22.45A7.46,7.46,0,0,0,111.08,79V34.08a7.47,7.47,0,0,0-12.73-5.3L75.75,51.23A7.47,7.47,0,0,0,75.75,61.83Z" fill="#000000"></path>
  <path d="M35.34,61.83,12.73,84.28A7.46,7.46,0,0,1,0,79V34.08a7.47,7.47,0,0,1,12.73-5.3L35.34,51.23A7.47,7.47,0,0,1,35.34,61.83Z" fill="#000000"></path>
  <path d="M55.54 5V104.06" stroke="#000000" stroke-width="13" stroke-linecap="round"></path>
</svg>